<svg width="86" height="71" viewBox="0 0 86 71" fill="none" xmlns="http://www.w3.org/2000/svg">
<path fill-rule="evenodd" clip-rule="evenodd" d="M57.5692 26.625C56.4647 26.625 55.5692 25.7296 55.5692 24.625V2C55.5692 0.895431 54.6738 0 53.5692 0H31.7692C30.6647 0 29.7692 0.89543 29.7692 2V24.625C29.7692 25.7296 28.8738 26.625 27.7692 26.625H2C0.89543 26.625 0 27.5204 0 28.625V45.925C0 47.0296 0.895432 47.925 2 47.925H27.7692C28.8738 47.925 29.7692 48.8204 29.7692 49.925V69C29.7692 70.1046 30.6647 71 31.7692 71H53.5692C54.6738 71 55.5692 70.1046 55.5692 69V49.925C55.5692 48.8204 56.4647 47.925 57.5692 47.925H84C85.1046 47.925 86 47.0296 86 45.925V28.625C86 27.5204 85.1046 26.625 84 26.625H57.5692Z" fill="#FEF8F8"/>
</svg>
